<?xml version="1.0" encoding="iso-8859-1"?>
<!-- Generator: Adobe Illustrator 19.0.0, SVG Export Plug-In . SVG Version: 6.00 Build 0)  -->
<svg version="1.1" id="Capa_1" xmlns="http://www.w3.org/2000/svg" xmlns:xlink="http://www.w3.org/1999/xlink" x="0px" y="0px"
	 viewBox="0 0 511.998 511.998" style="enable-background:new 0 0 511.998 511.998;" xml:space="preserve">
<path style="fill:#F3F5E6;" d="M375.703,46.328c-12.593-12.882-29.217-21.062-47.106-23.178l-23.817-2.817
	c-7.783-0.92-15.386-2.997-22.557-6.161c-22.326-9.849-47.955-8.803-69.404,2.833L192.07,28.264
	c-6.058,3.286-12.522,5.765-19.224,7.371l-26.677,6.392c-18.366,4.401-34.541,15.248-45.583,30.57l-28.147,39.06L256,172.482
	l183.563-60.826L375.703,46.328z"/>
<path style="fill:#D7D9CC;" d="M132.444,111.658l28.147-39.061c11.041-15.322,27.216-26.17,45.583-30.57l26.677-6.392
	c6.703-1.606,13.166-4.084,19.224-7.371l20.751-11.258c2.476-1.344,5.012-2.54,7.588-3.6c-21.894-9.015-46.723-7.724-67.595,3.6
	l-20.751,11.258c-6.058,3.287-12.522,5.765-19.224,7.371l-26.677,6.392c-18.366,4.4-34.541,15.248-45.583,30.57l-28.147,39.061
	l183.563,60.826l30.004-9.942L132.444,111.658z"/>
<path style="fill:#FDCA74;" d="M51.78,226.699c0,0-26.169,65.79-11.897,210.548c0,0-30.583,26.505-21.408,48.932
	c9.175,22.427,43.835,3.058,43.835,3.058s46.893,15.291,193.69,15.291s193.69-15.291,193.69-15.291s34.66,19.369,43.835-3.058
	c9.175-22.428-21.408-48.932-21.408-48.932c14.272-144.758-11.897-210.548-11.897-210.548l-204.219-54.215L51.78,226.699z"/>
<path style="fill:#E6A537;" d="M116.789,226.654l171.63-45.563l-32.42-8.607L51.78,226.699c0,0-26.169,65.79-11.897,210.547
	c0,0-30.583,26.505-21.408,48.932c9.175,22.427,43.835,3.058,43.835,3.058s10.523,3.428,37.174,7.038
	C83.239,311.043,116.789,226.654,116.789,226.654z"/>
<path style="fill:#FB8D4B;" d="M439.563,111.658H72.437c-19.667,0-35.612,15.944-35.612,35.612v50.429
	c0,19.667,15.944,35.612,35.612,35.612h367.126c19.667,0,35.612-15.944,35.612-35.612V147.27
	C475.174,127.602,459.23,111.658,439.563,111.658z"/>
<path style="fill:#E86D24;" d="M96.833,197.699V147.27c0-19.668,15.944-35.611,35.612-35.611H72.438
	c-19.667,0-35.612,15.944-35.612,35.611v50.429c0,19.668,15.944,35.611,35.612,35.611h60.007
	C112.777,233.311,96.833,217.367,96.833,197.699z"/>
<path d="M148.599,364.635c4.143,0,7.501-3.358,7.501-7.501v-19.438c0-4.143-3.358-7.501-7.501-7.501
	c-4.143,0-7.501,3.358-7.501,7.501v19.438C141.098,361.276,144.457,364.635,148.599,364.635z"/>
<path d="M363.401,364.635c4.142,0,7.501-3.358,7.501-7.501v-19.438c0-4.143-3.358-7.501-7.501-7.501
	c-4.143,0-7.501,3.358-7.501,7.501v19.438C355.9,361.276,359.258,364.635,363.401,364.635z"/>
<path d="M255.999,375.01c12.496,0,24.216-5.21,32.156-14.293c2.726-3.119,2.408-7.858-0.711-10.584
	c-3.118-2.726-7.857-2.408-10.584,0.711c-5.091,5.824-12.694,9.164-20.861,9.164c-8.167,0-15.77-3.34-20.861-9.164
	c-2.727-3.119-7.465-3.436-10.584-0.71s-3.437,7.465-0.71,10.584C231.784,369.802,243.505,375.01,255.999,375.01z"/>
<path d="M19.562,449.014c-10.009,14.524-12.787,28.346-8.03,39.973c2.777,6.79,7.726,11.595,14.312,13.899
	c13.506,4.725,30.441-2.308,37.275-5.653c12.723,3.354,65.372,14.765,192.881,14.765s180.158-11.409,192.88-14.765
	c6.834,3.344,23.769,10.376,37.275,5.653c6.585-2.303,11.534-7.109,14.312-13.898c4.757-11.626,1.98-25.449-8.029-39.973
	c-4.486-6.509-9.447-11.76-12.5-14.751c6.955-73.439,3.348-126.023-0.953-157.384c-3.352-24.44-7.624-40.196-9.998-47.741
	c8.415-7.873,13.689-19.064,13.689-31.47V147.24c0-22.664-17.582-41.285-39.82-42.974l-61.789-63.21
	c-10.361-10.601-23.373-18.395-37.629-22.541c-3.977-1.156-8.14,1.13-9.297,5.108c-1.157,3.977,1.13,8.14,5.108,9.297
	c11.779,3.425,22.53,9.865,31.089,18.622l51.402,52.585H87.088l19.582-27.174c9.986-13.858,24.634-23.681,41.245-27.66l26.677-6.392
	c7.339-1.758,14.422-4.475,21.053-8.072l20.751-11.258c19.268-10.454,42.743-11.412,62.799-2.564
	c7.861,3.468,16.172,5.738,24.704,6.747l7.028,0.831c4.121,0.486,7.843-2.454,8.33-6.568c0.486-4.114-2.454-7.844-6.568-8.33
	l-7.028-0.831c-7.049-0.833-13.917-2.708-20.41-5.574c-24.274-10.709-52.689-9.549-76.008,3.103l-20.751,11.258
	c-5.479,2.972-11.331,5.217-17.395,6.67l-26.676,6.388c-20.105,4.816-37.834,16.706-49.921,33.479l-26.04,36.135
	c-21.914,2.015-39.135,20.492-39.135,42.922v50.429c0,12.404,5.273,23.594,13.686,31.467c-2.366,7.504-6.604,23.133-9.96,47.499
	c-7.733,56.141-4.918,116.048-0.986,157.629C29.01,437.254,24.049,442.504,19.562,449.014z M44.796,442.883
	c1.839-1.594,2.791-3.981,2.552-6.404c-7.252-73.554-3.76-125.945,0.446-156.944c2.718-20.032,6.075-33.948,8.352-41.941
	c-0.036,0.14,2.973,1.079,3.291,1.181c4.195,1.342,8.596,2.007,13,2.007h37.889c4.143,0,7.501-3.358,7.501-7.501
	c0-4.053-3.442-7.501-7.501-7.501h-37.89c-1.432,0-2.883-0.107-4.299-0.329c-13.521-2.126-23.813-14.097-23.813-27.783v-50.429
	c0-15.501,12.611-28.11,28.11-28.11h367.126c15.501,0,28.11,12.611,28.11,28.11v50.429c0,9.53-4.772,17.963-12.047,23.049
	c-4.681,3.274-10.35,5.063-16.064,5.063H140.328c-4.038,0-7.501,3.456-7.501,7.501c0,4.143,3.358,7.501,7.501,7.501h299.234
	c5.573,0,11.132-1.074,16.292-3.188c2.274,7.986,5.625,21.873,8.341,41.86c7.634,56.182,4.462,116.401,0.457,157.026
	c-0.239,2.422,0.712,4.811,2.552,6.404c0.069,0.06,6.992,6.1,12.881,14.645c4.879,7.08,9.967,17.298,6.498,25.779
	c-1.166,2.849-2.82,4.519-5.365,5.413c-8.468,2.975-23.337-3.547-27.869-6.062c-1.814-1.014-3.986-1.224-5.966-0.59
	c-16.123,5.164-76.87,14.928-191.383,14.928S80.74,487.231,64.636,482.074c-1.982-0.646-4.153-0.433-5.975,0.578
	c-4.542,2.52-19.409,9.043-27.878,6.068c-2.544-0.894-4.199-2.563-5.365-5.413C19.593,469.069,37.437,449.294,44.796,442.883z"/>
<g>
</g>
<g>
</g>
<g>
</g>
<g>
</g>
<g>
</g>
<g>
</g>
<g>
</g>
<g>
</g>
<g>
</g>
<g>
</g>
<g>
</g>
<g>
</g>
<g>
</g>
<g>
</g>
<g>
</g>
</svg>
