<?xml version="1.0" encoding="utf-8"?>
<!-- Generator: Adobe Illustrator 16.0.0, SVG Export Plug-In . SVG Version: 6.00 Build 0)  -->
<!DOCTYPE svg PUBLIC "-//W3C//DTD SVG 1.1//EN" "http://www.w3.org/Graphics/SVG/1.1/DTD/svg11.dtd">
<svg version="1.1" id="scale" xmlns="http://www.w3.org/2000/svg" xmlns:xlink="http://www.w3.org/1999/xlink" x="0px" y="0px"
	 width="260px" height="314px" viewBox="0 0 260 314" enable-background="new 0 0 260 314" xml:space="preserve">
<g id="scale_parts">
	<path fill="#F04D4E" d="M60.092,162.453L36.91,259.952c-0.682,4.773-1.365,9.548-1.365,14.322v19.089h190.909v-19.089
		c0-4.774-0.679-9.549-1.364-14.322l-23.178-97.499c-0.687-3.409-3.409-5.453-6.818-5.453H66.91
		C63.5,157,60.774,159.044,60.092,162.453"/>
	<path fill="#ECEFF9" d="M131,177.454c26.36,0,47.728,21.367,47.728,47.728S157.36,272.909,131,272.909
		s-47.728-21.367-47.728-47.728S104.64,177.454,131,177.454"/>
	<path fill="#014463" d="M131,286.545c-34.091,0-61.364-27.272-61.364-61.363S96.909,163.818,131,163.818
		s61.363,27.272,61.363,61.363S165.091,286.545,131,286.545 M131,177.454c-26.59,0-47.728,21.134-47.728,47.728
		S104.41,272.909,131,272.909c26.594,0,47.728-21.134,47.728-47.728S157.594,177.454,131,177.454"/>
	<path fill="#7CA3C1" d="M96.909,218.363c3.762,0,6.818,3.057,6.818,6.818S100.671,232,96.909,232c-3.762,0-6.818-3.057-6.818-6.818
		S93.147,218.363,96.909,218.363"/>
	<path fill="#7CA3C1" d="M165.091,218.363c3.762,0,6.818,3.057,6.818,6.818S168.853,232,165.091,232s-6.818-3.057-6.818-6.818
		S161.329,218.363,165.091,218.363"/>
	<path fill="#7CA3C1" d="M131,252.454c3.762,0,6.818,3.057,6.818,6.818c0,3.763-3.057,6.818-6.818,6.818s-6.818-3.056-6.818-6.818
		C124.182,255.511,127.238,252.454,131,252.454"/>
	<path fill="#7CA3C1" d="M131,184.272c3.762,0,6.818,3.057,6.818,6.818s-3.057,6.818-6.818,6.818s-6.818-3.057-6.818-6.818
		S127.238,184.272,131,184.272"/>
	<path fill="#9FD6FF" d="M28.728,20.636c0.682,28.638,3.409,57.272,9.544,84.545c1.365,6.136,6.818,10.91,13.636,10.91h158.18
		c6.14,0,11.593-4.092,13.637-10.91c6.139-27.273,8.869-55.907,9.548-84.545H28.728z"/>
	<path fill="#014463" d="M126.226,220.408l32.046-22.499l-22.498,32.047c-2.051,3.409-6.822,4.088-9.548,1.358
		c-3.409-2.045-4.092-6.818-1.365-9.542C124.861,221.087,125.543,221.087,126.226,220.408"/>
	<rect x="117.364" y="129.728" fill="#B0C4D8" width="27.273" height="13.636"/>
	<path fill="#8BB5D8" d="M199.867,20.636c-7.504,0-12.957,5.454-13.636,12.954c-0.687,20.455-3.409,41.591-7.504,62.046
		c0,0.683-0.68,2.044-0.68,3.409c-1.364,6.136-6.818,10.227-12.957,10.227H57.365c-6.136,0-11.593-4.091-12.954-10.227
		c0-1.365-0.683-2.044-0.683-3.409c-5.457-24.546-7.5-49.771-8.183-75h-6.818c0.682,28.638,3.409,57.272,10.227,85.228
		c1.365,6.135,6.818,10.227,12.954,10.227h6.818h117.277H206h4.095c6.133,0,11.586-4.092,12.95-10.227
		c6.14-27.956,9.549-56.59,10.228-85.228H199.867z"/>
	<path fill="#ECF0F9" d="M73.045,68.364L73.045,68.364c-2.044,0-3.409-1.365-3.409-3.409V37.682c0-2.044,1.365-3.409,3.409-3.409
		c2.044,0,3.409,1.365,3.409,3.409v27.273C76.455,66.999,75.09,68.364,73.045,68.364"/>
	<path fill="#ECF0F9" d="M86.682,54.728L86.682,54.728c-2.044,0-3.409-1.365-3.409-3.409V37.682c0-2.044,1.365-3.409,3.409-3.409
		c2.044,0,3.409,1.365,3.409,3.409v13.637C90.091,53.362,88.726,54.728,86.682,54.728"/>
	<path fill="#ECF0F9" d="M73.045,75.182c1.881,0,3.409,1.528,3.409,3.409S74.926,82,73.045,82s-3.409-1.528-3.409-3.409
		S71.165,75.182,73.045,75.182"/>
	<polygon fill="#99B5CD" points="117.364,129.728 117.364,136.545 137.818,136.545 137.818,143.364 144.637,143.364 
		144.637,136.545 144.637,129.728 	"/>
	<path fill="#91000E" d="M225.09,259.959l-23.185-97.506c-0.68-3.409-3.409-5.453-6.818-5.453h-16.359
		c3.409,0,6.132,2.044,6.817,5.453l12.271,97.506c1.365,4.767,1.365,9.541,1.365,14.315c0,6.817-5.453,12.271-12.271,12.271H54.635
		c-6.818,0-12.271-5.453-12.271-12.271c0-4.774,0.679-9.549,1.361-14.315l23.181-97.506c0.683-3.409,3.409-5.453,6.818-5.453h-6.818
		c-3.409,0-6.136,2.044-6.818,5.453l-23.181,97.506c-0.683,4.767-1.362,9.541-1.362,14.315v19.089h6.818h156.818h27.272v-19.089
		C226.454,269.5,225.769,264.726,225.09,259.959"/>
	<path fill="#004463" d="M246.909,293.363c-4.089,0-6.818-2.729-6.818-6.818v-12.271c0-5.454-0.679-11.593-2.044-17.046
		l-23.185-97.499c-2.044-9.548-10.228-16.366-19.769-16.366h-36.821v-13.636h51.815c12.957,0,23.864-8.862,26.594-21.137
		c6.139-29.317,9.548-58.637,10.228-87.954c4.088,0,6.818-2.727,6.818-6.818c0-4.092-2.73-6.818-6.818-6.818h-6.818H21.909h-6.818
		c-4.092,0-6.818,2.727-6.818,6.818c0,4.091,2.727,6.818,6.818,6.818c0.683,29.317,3.409,58.637,10.228,87.954
		c2.727,12.275,13.636,21.137,26.59,21.137h51.819v13.636H66.91c-9.544,0-17.728,6.818-19.772,15.68l-23.185,97.499
		c-1.361,6.139-2.044,11.592-2.044,17.731v12.271c0,4.089-2.727,6.818-6.818,6.818s-6.818,2.73-6.818,6.818S10.999,307,15.091,307
		h13.637h204.545h13.637c4.088,0,6.818-2.73,6.818-6.818S250.997,293.363,246.909,293.363 M38.955,105.181
		c-6.818-27.273-9.545-55.907-10.227-84.545h204.545c-0.679,28.638-3.409,57.272-9.548,84.545
		c-1.358,6.136-6.818,10.91-13.637,10.91h-58.634h-40.909H51.908C45.772,116.091,40.319,111.999,38.955,105.181 M117.364,129.728
		h27.273v13.636h-27.273V129.728z M226.454,293.363H35.545v-19.089c0-4.774,0.683-9.549,1.365-14.322l23.182-97.499
		C60.774,159.044,63.5,157,66.91,157h43.636h40.909h43.64c3.409,0,6.132,2.044,6.818,5.453l23.178,97.499
		c1.364,4.773,1.364,9.548,1.364,14.322V293.363z"/>
</g>
</svg>
