<?xml version="1.0" encoding="iso-8859-1"?>
<!-- Generator: Adobe Illustrator 19.0.0, SVG Export Plug-In . SVG Version: 6.00 Build 0)  -->
<svg version="1.1" id="Capa_1" xmlns="http://www.w3.org/2000/svg" xmlns:xlink="http://www.w3.org/1999/xlink" x="0px" y="0px"
	 viewBox="0 0 512.001 512.001" style="enable-background:new 0 0 512.001 512.001;" xml:space="preserve">
<path style="fill:#80E2FF;" d="M371.383,99.916c-49.123,0-66.973-56.954-66.973-56.954l-48.409-21.481l-48.409,21.481
	c0,0-17.85,56.954-66.973,56.954l115.382,17.395L371.383,99.916z"/>
<path style="fill:#55C2E3;" d="M181.825,99.916c49.123,0,66.973-56.954,66.973-56.954l27.806-12.338l-20.604-9.143l-48.409,21.481
	c0,0-17.85,56.954-66.973,56.954l115.382,17.395l20.604-3.106L181.825,99.916z"/>
<path style="fill:#80E2FF;" d="M371.383,134.705l-115.382-17.395l-115.382,17.395c0,0-33.603,27.59-33.603,86.564v162.437
	c0,58.974,33.603,86.564,33.603,86.564l115.382,20.864l115.382-20.865c0,0,33.603-27.59,33.603-86.564V221.27
	C404.987,162.296,371.383,134.705,371.383,134.705z"/>
<g>
	<path style="fill:#55C2E3;" d="M192.127,470.27c0,0-33.603-27.59-33.603-86.564V221.27c0-58.974,33.603-86.564,33.603-86.564
		l89.628-13.512l-25.755-3.883l-115.382,17.395c0,0-33.603,27.59-33.603,86.564v162.437c0,58.974,33.603,86.564,33.603,86.564
		l115.382,20.864l25.755-4.657L192.127,470.27z"/>
	<path style="fill:#55C2E3;" d="M371.383,99.916H140.618c-9.606,0-17.395,7.788-17.395,17.395s7.788,17.395,17.395,17.395h230.766
		c9.606,0,17.395-7.788,17.395-17.395S380.99,99.916,371.383,99.916z"/>
</g>
<path style="fill:#45B6D9;" d="M176.99,117.311c0-9.606,7.788-17.395,17.395-17.395h-53.766c-9.606,0-17.395,7.788-17.395,17.395
	s7.788,17.395,17.395,17.395h53.766C184.778,134.705,176.99,126.917,176.99,117.311z"/>
<path style="fill:#F3F5E6;" d="M143.226,225.408v158.299c0,8.899,1.01,16.736,2.585,23.551
	c3.644,15.755,17.848,26.801,34.018,26.801h152.344c16.171,0,30.375-11.046,34.018-26.801c1.576-6.815,2.585-14.652,2.585-23.551
	V225.408H143.226z"/>
<path style="fill:#D7D9CC;" d="M143.226,225.408v158.299c0,8.899,1.01,16.736,2.585,23.551
	c2.629,11.369,10.759,20.284,21.159,24.368c-4.841-12.709-8.446-28.624-8.446-47.919V225.408H143.226z"/>
<g>
	<path style="fill:#3B484A;" d="M186.11,318.853c-4.267,0-7.726-3.459-7.726-7.726v-12.65c0-4.267,3.459-7.726,7.726-7.726
		c4.267,0,7.726,3.459,7.726,7.726v12.65C193.836,315.394,190.377,318.853,186.11,318.853z"/>
	<path style="fill:#3B484A;" d="M325.891,318.853c-4.267,0-7.726-3.459-7.726-7.726v-12.65c0-4.267,3.459-7.726,7.726-7.726
		c4.267,0,7.726,3.459,7.726,7.726v12.65C333.617,315.394,330.158,318.853,325.891,318.853z"/>
	<path style="fill:#3B484A;" d="M256.001,325.605c-8.952,0-17.361-3.745-23.068-10.274c-2.808-3.213-2.481-8.094,0.732-10.902
		c3.213-2.807,8.094-2.481,10.902,0.732c2.772,3.172,6.939,4.99,11.433,4.99s8.661-1.819,11.433-4.99
		c2.809-3.213,7.689-3.541,10.902-0.732c3.213,2.808,3.541,7.689,0.732,10.902C273.361,321.861,264.953,325.605,256.001,325.605z"/>
</g>
<path style="fill:#55C2E3;" d="M304.41,0h-96.818c-11.864,0-21.481,9.618-21.481,21.481l0,0c0,11.864,9.618,21.481,21.481,21.481
	h96.818c11.864,0,21.481-9.618,21.481-21.481l0,0C325.891,9.618,316.274,0,304.41,0z"/>
<path style="fill:#45B6D9;" d="M227.756,21.481L227.756,21.481C227.756,9.618,237.374,0,249.237,0h-41.646
	c-11.864,0-21.481,9.618-21.481,21.481l0,0c0,11.865,9.618,21.481,21.481,21.481h41.646
	C237.374,42.963,227.756,33.346,227.756,21.481z"/>
<path style="fill:#55C2E3;" d="M371.383,470.27H140.618c-11.524,0-20.865,9.342-20.865,20.865l0,0
	c0,11.524,9.342,20.865,20.865,20.865h230.766c11.524,0,20.865-9.342,20.865-20.865l0,0
	C392.248,479.611,382.906,470.27,371.383,470.27z"/>
<path style="fill:#45B6D9;" d="M171.262,491.135L171.262,491.135c0-11.524,9.342-20.864,20.865-20.864h-51.509
	c-11.524,0-20.865,9.342-20.865,20.864l0,0c0,11.524,9.342,20.865,20.865,20.865h51.509
	C180.604,512,171.262,502.658,171.262,491.135z"/>
<g>
</g>
<g>
</g>
<g>
</g>
<g>
</g>
<g>
</g>
<g>
</g>
<g>
</g>
<g>
</g>
<g>
</g>
<g>
</g>
<g>
</g>
<g>
</g>
<g>
</g>
<g>
</g>
<g>
</g>
</svg>
